<?xml version="1.0" encoding="utf-8"?>
<!DOCTYPE svg PUBLIC "-//W3C//DTD SVG 20010904//EN" "http://www.w3.org/TR/2001/REC-SVG-20010904/DTD/svg10.dtd">
<svg version="1.0" xmlns="http://www.w3.org/2000/svg" width="1026pt" height="1026pt" viewBox="0 0 1026 1026" style="" preserveAspectRatio="xMidYMid meet">
<g fill="#00BE95FF" stroke="#00BE95FF">
<path d="M 854.132 400.078 C 833.530 404.126 820.046 427.218 820.017 458.500 C 819.999 477.271 823.577 491.646 831.051 502.839 C 838.081 513.366 847.766 518.118 862.147 518.095 C 874.453 518.075 880.369 516.284 886.746 510.645 C 889.804 507.941 890.617 508.797 890.875 515.000 L 891.000 518.000 903.508 518.000 L 916.016 518.000 915.758 459.750 L 915.500 401.500 910.000 401.173 C 906.975 400.992 901.238 401.143 897.250 401.508 C 890.407 402.133 890.000 402.308 890.000 404.617 C 890.000 407.913 887.399 408.711 884.699 406.243 C 881.321 403.157 877.029 401.292 870.546 400.093 C 863.837 398.853 860.380 398.850 854.132 400.078 M 877.441 423.266 C 885.841 428.027 888.452 438.352 887.740 464.000 C 887.160 484.892 885.502 490.995 879.222 495.346 C 874.135 498.870 865.616 499.873 860.926 497.500 C 852.994 493.486 850.774 488.826 848.931 472.319 C 847.754 461.782 849.010 442.902 851.337 436.149 C 855.842 423.073 867.205 417.465 877.441 423.266 "/></g>
<g fill="#00BE95FF" stroke="#00BE95FF">
<path d="M 219.473 595.957 C 219.828 596.531 220.627 597.000 221.250 597.000 C 221.872 597.000 237.258 603.365 255.441 611.144 C 273.623 618.923 295.893 628.375 304.928 632.149 L 321.356 639.010 419.774 638.755 L 518.193 638.500 515.371 635.500 C 513.819 633.850 512.640 632.194 512.752 631.819 C 512.863 631.445 511.639 630.033 510.032 628.681 C 508.426 627.329 507.330 626.003 507.598 625.736 C 507.865 625.468 506.740 624.118 505.098 622.736 C 503.455 621.353 502.289 620.044 502.506 619.827 C 502.724 619.609 500.746 617.087 498.112 614.221 C 495.478 611.356 493.453 608.881 493.612 608.721 C 493.771 608.562 491.706 606.043 489.023 603.124 C 486.339 600.205 483.813 597.071 483.408 596.159 C 482.811 594.813 482.654 594.783 482.571 596.000 C 482.502 597.022 482.237 597.135 481.739 596.353 C 481.197 595.501 447.282 595.168 349.919 595.060 C 259.136 594.959 219.027 595.235 219.473 595.957 "/></g>
<g fill="#00A7F6FF" stroke="#00A7F6FF">
<path d="M 618.500 594.771 L 572.500 595.069 570.000 598.534 C 568.625 600.439 566.734 603.011 565.798 604.249 C 554.930 618.626 541.000 637.936 541.000 638.626 C 541.000 639.009 582.402 639.006 633.005 638.620 L 725.009 637.918 737.001 631.959 C 743.597 628.682 749.191 626.000 749.432 626.000 C 749.673 626.000 762.387 619.878 777.685 612.396 C 792.983 604.914 807.525 597.826 810.000 596.646 L 814.500 594.500 739.500 594.487 C 698.250 594.479 643.800 594.607 618.500 594.771 "/></g>
<g fill="#00B2C4FF" stroke="#00B2C4FF">
<path d="M 428.500 399.619 C 423.590 400.679 419.000 402.390 419.000 403.160 C 419.000 403.622 418.605 403.888 418.121 403.750 C 416.727 403.353 408.381 409.942 405.088 414.041 C 401.404 418.625 396.650 426.994 397.718 427.015 C 398.148 427.024 398.024 427.361 397.441 427.765 C 395.429 429.161 392.144 443.534 391.559 453.500 C 391.052 462.124 391.534 469.639 393.259 480.000 C 394.766 489.059 400.069 498.878 407.497 506.366 C 412.690 511.601 422.356 517.340 426.500 517.649 C 427.600 517.731 429.625 518.081 431.000 518.427 C 432.375 518.773 437.882 519.207 443.237 519.392 C 452.349 519.707 456.354 519.234 465.000 516.822 C 466.925 516.284 468.900 515.918 469.388 516.008 C 469.877 516.097 470.552 515.795 470.888 515.335 C 471.225 514.876 473.161 513.732 475.192 512.794 C 478.413 511.305 478.819 510.735 478.381 508.315 C 478.104 506.790 477.343 505.202 476.689 504.787 C 476.035 504.371 475.831 504.024 476.235 504.015 C 476.640 504.007 476.114 502.591 475.067 500.869 C 474.020 499.148 473.399 497.123 473.688 496.369 C 473.978 495.616 473.641 495.000 472.940 495.000 C 472.240 495.000 471.945 494.721 472.286 494.381 C 473.008 493.659 471.009 491.613 469.226 491.250 C 468.552 491.113 468.000 491.477 468.000 492.059 C 468.000 492.641 467.581 492.859 467.069 492.543 C 466.557 492.226 465.851 492.432 465.500 493.000 C 465.149 493.568 464.443 493.774 463.931 493.457 C 463.419 493.141 463.000 493.359 463.000 493.941 C 463.000 494.523 462.663 494.947 462.250 494.882 C 461.838 494.816 461.275 494.851 461.000 494.958 C 456.141 496.852 441.240 498.268 439.500 497.001 C 438.950 496.600 437.713 496.211 436.750 496.136 C 435.788 496.061 434.260 495.925 433.356 495.833 C 431.062 495.601 422.000 486.232 422.000 484.092 C 422.000 483.125 421.687 482.020 421.304 481.638 C 420.579 480.912 420.389 480.103 419.397 473.500 L 418.796 469.500 439.410 469.636 C 450.747 469.711 460.269 469.373 460.570 468.886 C 460.872 468.399 461.793 468.000 462.618 468.000 C 463.454 468.000 463.817 468.487 463.438 469.100 C 462.944 469.899 463.319 469.899 464.814 469.100 C 465.944 468.495 470.563 468.000 475.078 468.000 L 483.287 468.000 482.567 454.750 C 481.740 439.546 481.495 437.110 480.570 434.899 C 480.202 434.019 479.996 432.894 480.112 432.399 C 480.228 431.905 479.788 430.201 479.134 428.614 C 478.481 427.026 477.827 424.948 477.681 423.995 C 477.536 423.042 475.660 419.257 473.512 415.585 C 470.828 410.995 468.417 408.238 465.803 406.769 C 463.711 405.594 462.000 404.265 462.000 403.816 C 462.000 403.367 461.138 403.000 460.083 403.000 C 459.029 403.000 457.993 402.479 457.781 401.842 C 457.568 401.205 455.964 400.725 454.215 400.775 C 452.466 400.825 450.810 400.501 450.535 400.056 C 450.016 399.216 432.016 398.859 428.500 399.619 M 446.000 422.469 C 447.375 422.910 449.724 424.541 451.219 426.094 C 454.088 429.072 457.217 435.450 456.272 436.394 C 455.966 436.701 456.131 437.525 456.639 438.226 C 457.147 438.927 457.495 441.525 457.412 444.000 L 457.260 448.500 439.380 448.531 C 429.546 448.549 420.951 448.393 420.281 448.186 C 417.574 447.350 424.042 426.000 427.002 426.000 C 427.472 426.000 428.622 425.235 429.557 424.300 C 432.088 421.769 440.795 420.799 446.000 422.469 "/></g>
<g fill="#00BE95FF" stroke="#00BE95FF">
<path d="M 606.750 401.800 L 601.000 402.100 601.000 444.883 C 601.000 473.046 601.392 489.616 602.146 493.371 C 603.618 500.700 608.347 508.541 613.794 512.683 C 624.798 521.051 645.547 521.181 656.904 512.954 C 659.147 511.329 661.437 510.000 661.991 510.000 C 662.546 510.000 663.000 511.800 663.000 514.000 L 663.000 518.000 676.500 518.000 L 690.000 518.000 690.000 460.059 C 690.000 428.191 689.663 401.966 689.250 401.779 C 688.838 401.593 682.763 401.603 675.750 401.802 L 663.000 402.163 663.000 441.044 C 663.000 477.938 662.894 480.208 660.926 485.468 C 658.079 493.077 653.851 496.233 645.877 496.698 C 638.442 497.132 633.882 495.154 630.766 490.144 C 628.527 486.543 628.494 485.998 628.000 444.000 L 627.500 401.500 620.000 401.500 C 615.875 401.500 609.913 401.635 606.750 401.800 "/></g>
<g fill="#00A7F6FF" stroke="#00A7F6FF">
<path d="M 112.341 403.750 C 114.637 412.201 116.435 418.203 117.807 422.000 C 118.701 424.475 119.479 426.725 119.536 427.000 C 119.863 428.585 122.530 437.465 124.916 444.908 C 126.431 449.634 128.687 456.875 129.930 461.000 C 134.300 475.504 141.081 497.548 142.543 502.000 C 143.355 504.475 144.218 507.532 144.461 508.793 C 144.703 510.055 145.464 512.642 146.152 514.543 L 147.402 518.000 164.226 518.000 L 181.050 518.000 182.107 515.250 C 183.326 512.079 188.094 496.246 193.475 477.500 C 195.528 470.350 198.269 461.125 199.568 457.000 C 200.867 452.875 203.034 445.675 204.383 441.000 C 208.256 427.584 213.868 408.766 214.914 405.693 C 215.608 403.655 215.532 402.758 214.638 402.415 C 213.962 402.155 206.941 402.068 199.038 402.221 L 184.667 402.500 182.404 411.962 C 181.160 417.167 180.181 421.667 180.230 421.962 C 180.278 422.258 180.044 423.175 179.710 424.000 C 179.000 425.755 176.963 434.476 173.989 448.500 C 172.822 454.000 170.488 464.125 168.802 471.000 C 167.116 477.875 165.606 484.552 165.446 485.838 C 164.851 490.647 162.503 489.737 161.555 484.330 C 161.250 482.587 160.300 478.427 159.444 475.087 C 158.588 471.746 157.688 468.110 157.444 467.006 C 157.200 465.903 156.749 463.988 156.442 462.750 C 156.135 461.513 155.244 457.125 154.462 453.000 C 153.680 448.875 151.747 440.100 150.166 433.500 C 148.586 426.900 146.251 417.113 144.978 411.750 L 142.664 402.000 127.265 402.000 C 113.084 402.000 111.903 402.139 112.341 403.750 "/></g>
<g fill="#00BE95FF" stroke="#00BE95FF">
<path d="M 752.773 400.555 C 735.204 404.814 723.053 417.362 717.864 436.601 C 714.990 447.258 714.702 472.168 717.338 482.000 C 721.509 497.557 729.657 508.752 740.986 514.493 C 751.365 519.752 766.945 521.354 780.266 518.532 C 787.221 517.058 798.246 512.613 799.905 510.615 C 800.510 509.885 799.779 507.028 797.827 502.495 C 796.170 498.648 794.420 494.495 793.938 493.266 L 793.061 491.031 789.781 492.931 C 781.942 497.471 769.818 499.188 761.637 496.916 C 755.457 495.200 749.444 488.227 746.757 479.660 C 743.486 469.233 743.561 449.481 746.908 439.631 C 750.833 428.080 758.313 422.573 770.000 422.630 C 777.131 422.664 782.629 424.281 788.091 427.950 C 790.513 429.576 792.756 430.590 793.076 430.203 C 794.798 428.123 801.157 410.851 800.668 409.578 C 799.812 407.348 790.815 403.127 782.244 400.935 C 773.386 398.669 761.200 398.512 752.773 400.555 "/></g>
<g fill="#00BE95FF" stroke="#00BE95FF">
<path d="M 553.974 402.262 C 548.981 404.733 547.364 405.959 542.808 410.724 C 541.113 412.498 539.367 413.727 538.928 413.456 C 538.490 413.185 537.422 410.523 536.555 407.540 L 534.978 402.117 522.902 401.809 C 516.260 401.639 510.640 401.688 510.413 401.917 C 510.186 402.146 510.000 428.358 510.000 460.167 L 510.000 518.000 524.006 518.000 L 538.011 518.000 537.929 480.598 C 537.839 439.075 537.626 440.551 544.668 433.856 C 551.612 427.254 556.184 425.584 567.250 425.611 C 572.613 425.625 577.050 425.380 577.112 425.068 C 577.173 424.755 577.383 422.925 577.577 421.000 C 577.771 419.075 578.430 413.948 579.041 409.606 C 579.894 403.543 579.873 401.540 578.953 400.971 C 578.294 400.563 573.422 400.183 568.127 400.126 C 560.036 400.039 557.778 400.380 553.974 402.262 "/></g>
<g fill="#00A7F6FF" stroke="#00A7F6FF">
<path d="M 240.000 459.500 L 240.000 518.000 255.000 518.000 L 270.000 518.000 270.000 459.500 L 270.000 401.000 255.000 401.000 L 240.000 401.000 240.000 459.500 "/></g>
<g fill="#00A7F6FF" stroke="#00A7F6FF">
<path d="M 343.742 368.085 C 342.775 368.648 341.538 368.832 340.992 368.495 C 340.446 368.158 340.000 368.284 340.000 368.774 C 340.000 369.265 339.433 369.667 338.741 369.667 C 336.108 369.667 322.957 373.261 322.422 374.126 C 322.114 374.625 321.419 374.759 320.877 374.424 C 320.243 374.032 320.001 378.829 320.196 387.885 L 320.500 401.954 318.000 402.434 C 316.625 402.698 311.563 402.771 306.750 402.596 L 298.000 402.279 298.000 413.670 L 298.000 425.062 307.993 424.718 C 313.489 424.528 318.513 424.699 319.156 425.096 C 319.799 425.494 320.368 427.772 320.421 430.159 C 320.474 432.547 320.921 435.132 321.413 435.905 C 322.030 436.872 321.950 437.087 321.155 436.595 C 320.408 436.134 320.005 436.698 320.015 438.191 C 320.028 440.049 320.220 440.207 321.000 439.000 C 321.582 438.099 321.975 437.975 321.985 438.691 C 321.993 439.346 321.635 440.108 321.188 440.384 C 320.230 440.976 320.421 450.253 321.425 451.878 C 321.806 452.495 321.616 453.000 321.002 453.000 C 319.664 453.000 319.825 497.925 321.163 498.125 C 321.624 498.194 322.450 498.363 323.000 498.500 C 323.550 498.638 324.315 498.806 324.700 498.875 C 325.085 498.944 324.860 499.540 324.200 500.200 C 322.356 502.044 322.759 502.802 325.499 502.644 C 327.779 502.513 329.037 501.218 327.250 500.842 C 326.838 500.756 327.104 500.713 327.842 500.747 C 328.735 500.788 328.990 500.089 328.605 498.654 C 328.287 497.469 328.021 496.177 328.014 495.781 C 328.006 495.386 327.213 495.308 326.250 495.607 C 324.686 496.093 324.694 496.027 326.320 494.986 C 327.848 494.009 328.229 494.158 328.687 495.911 C 328.987 497.060 329.631 498.000 330.117 498.000 C 331.279 498.000 331.258 495.277 330.089 494.555 C 329.588 494.245 329.329 493.206 329.513 492.246 C 329.842 490.525 330.086 490.795 330.420 493.250 C 330.610 494.638 333.309 494.381 333.833 492.925 C 334.427 491.278 335.831 491.946 335.566 493.750 C 335.425 494.713 335.101 495.500 334.847 495.500 C 334.592 495.500 334.498 496.625 334.638 498.000 C 334.854 500.126 334.742 500.237 333.892 498.742 C 333.342 497.775 333.168 496.538 333.505 495.992 C 333.842 495.446 333.641 495.000 333.059 495.000 C 331.716 495.000 331.707 496.584 333.035 499.066 C 334.185 501.214 333.063 501.663 331.200 499.800 C 330.267 498.867 330.000 498.874 330.000 499.832 C 330.000 500.510 331.013 501.510 332.250 502.055 C 334.225 502.925 334.142 502.974 331.575 502.460 C 329.025 501.949 328.814 502.071 329.930 503.416 C 330.869 504.547 331.699 504.696 333.044 503.976 C 334.253 503.329 335.090 503.336 335.498 503.997 C 335.839 504.549 336.879 504.968 337.809 504.930 C 339.188 504.872 339.130 504.701 337.500 504.000 C 336.400 503.527 335.838 503.053 336.250 502.945 C 336.663 502.838 336.588 502.694 336.083 502.625 C 334.321 502.385 333.682 501.000 335.333 501.000 C 337.221 501.000 337.544 498.944 335.913 497.313 C 335.130 496.530 335.130 496.038 335.913 495.554 C 336.511 495.184 337.000 495.385 337.000 496.000 C 337.000 496.615 337.508 496.804 338.128 496.421 C 338.915 495.934 338.810 495.473 337.781 494.897 C 336.931 494.422 336.396 492.889 336.519 491.286 L 336.732 488.500 337.803 491.000 L 338.873 493.500 338.937 491.143 C 338.986 489.311 339.390 488.940 340.750 489.479 C 343.854 490.708 346.069 490.921 345.458 489.931 C 345.130 489.401 344.490 489.197 344.036 489.478 C 343.581 489.759 342.952 489.316 342.636 488.494 C 342.321 487.672 342.525 487.000 343.090 487.000 C 343.656 487.000 343.869 486.597 343.565 486.105 C 343.260 485.612 343.648 484.965 344.426 484.667 C 346.439 483.894 345.785 481.267 343.658 481.580 C 342.598 481.735 342.110 481.370 342.443 480.670 C 342.749 480.026 343.276 478.713 343.616 477.750 C 343.955 476.788 344.601 476.000 345.050 476.000 C 346.302 476.000 345.108 470.965 343.468 469.325 C 341.555 467.412 340.032 468.450 340.627 471.262 C 340.968 472.874 340.908 472.987 340.412 471.665 C 339.881 470.254 339.536 470.133 338.912 471.143 C 338.423 471.934 338.738 473.158 339.706 474.227 C 341.983 476.744 342.945 476.425 342.385 473.337 C 341.968 471.039 342.111 470.848 343.430 471.942 C 344.572 472.889 344.702 473.689 343.944 475.105 C 342.824 477.197 340.000 477.695 340.000 475.800 C 340.000 474.893 339.694 474.906 338.750 475.850 C 337.750 476.850 337.500 476.640 337.500 474.800 C 337.500 473.535 336.938 472.500 336.250 472.500 C 335.563 472.500 335.000 472.163 335.000 471.750 C 335.000 471.338 335.000 471.241 335.000 471.535 C 335.000 471.830 335.929 471.573 337.065 470.965 C 338.707 470.086 338.889 469.571 337.952 468.442 C 337.026 467.326 337.119 466.892 338.387 466.405 C 339.274 466.064 340.000 465.207 340.000 464.500 C 340.000 463.793 340.675 462.955 341.500 462.638 C 342.430 462.282 343.000 462.643 343.000 463.590 C 343.000 464.546 342.539 464.833 341.768 464.357 C 341.091 463.938 341.481 464.796 342.636 466.264 C 345.083 469.376 346.039 468.884 345.900 464.583 C 345.804 461.594 345.776 461.576 345.000 464.000 C 344.255 466.327 344.192 466.349 344.100 464.309 C 344.045 463.104 343.492 461.804 342.872 461.421 C 342.112 460.951 342.320 460.401 343.509 459.735 C 344.770 459.029 345.076 459.069 344.578 459.874 C 344.195 460.493 344.359 461.000 344.941 461.000 C 345.523 461.000 346.000 460.025 346.000 458.833 C 346.000 457.642 345.691 456.975 345.314 457.352 C 344.937 457.729 344.486 457.017 344.312 455.769 C 344.061 453.977 344.202 453.816 344.982 455.000 C 345.710 456.107 345.938 455.451 345.849 452.500 C 345.780 450.231 345.540 449.473 345.294 450.750 C 345.056 451.988 344.456 453.000 343.962 453.000 C 343.467 453.000 343.300 452.383 343.589 451.629 C 344.195 450.048 341.361 448.606 340.473 450.044 C 340.148 450.570 340.385 451.000 341.000 451.000 C 341.615 451.000 341.810 451.498 341.434 452.107 C 340.957 452.879 340.485 452.803 339.875 451.857 C 339.204 450.817 338.856 451.025 338.383 452.750 C 338.044 453.988 337.383 455.000 336.915 455.000 C 336.446 455.000 336.317 454.337 336.629 453.526 C 336.940 452.715 336.476 451.333 335.597 450.454 C 333.765 448.622 333.573 447.382 334.989 446.507 C 335.536 446.169 335.734 446.531 335.431 447.319 C 334.710 449.199 337.647 450.259 340.035 448.981 C 341.284 448.313 341.703 447.381 341.269 446.235 C 340.653 444.609 340.723 444.610 342.387 446.259 C 344.657 448.510 346.000 447.661 346.000 443.976 C 346.000 442.094 345.296 440.693 344.000 440.000 C 342.516 439.206 342.000 439.240 342.000 440.131 C 342.000 440.793 341.703 441.036 341.339 440.673 C 340.976 440.310 341.427 439.185 342.342 438.175 C 343.256 437.164 343.667 436.000 343.254 435.587 C 342.841 435.174 343.382 434.194 344.456 433.409 C 346.204 432.130 346.290 431.539 345.279 427.752 C 344.543 424.994 344.489 423.116 345.124 422.351 C 345.659 421.706 345.723 420.947 345.266 420.664 C 344.809 420.382 344.536 418.341 344.659 416.129 C 344.834 413.003 344.567 412.229 343.460 412.654 C 342.413 413.055 342.296 413.685 343.018 415.034 C 344.329 417.483 344.258 419.000 342.833 419.000 C 342.192 419.000 341.949 418.718 342.293 418.373 C 342.638 418.028 342.286 416.520 341.511 415.022 C 340.516 413.097 340.415 411.985 341.166 411.234 C 341.918 410.482 341.273 409.675 338.969 408.484 C 336.678 407.299 336.088 406.564 336.982 406.011 C 337.711 405.560 337.921 404.682 337.474 403.957 C 336.912 403.048 337.087 402.942 338.095 403.580 C 338.868 404.069 339.950 404.478 340.500 404.489 C 341.050 404.501 341.546 405.407 341.602 406.505 C 341.658 407.602 341.827 408.388 341.977 408.250 C 342.226 408.022 342.484 408.717 342.905 410.750 C 342.991 411.163 343.525 410.703 344.092 409.729 C 344.673 408.730 345.641 408.269 346.311 408.671 C 347.014 409.092 346.942 408.696 346.137 407.703 C 345.387 406.778 344.374 406.269 343.887 406.570 C 343.399 406.871 343.000 406.407 343.000 405.538 C 343.000 404.668 341.875 403.445 340.500 402.818 C 339.125 402.192 338.000 401.246 338.000 400.717 C 338.000 400.155 338.533 400.198 339.284 400.820 C 340.508 401.837 343.265 400.980 343.085 399.638 C 343.038 399.287 343.000 399.280 343.000 399.622 C 343.000 399.965 343.675 399.685 344.500 399.000 C 345.603 398.085 346.000 395.653 346.000 389.819 C 346.000 385.015 345.622 382.116 345.042 382.474 C 344.515 382.799 344.691 381.897 345.432 380.469 C 346.939 377.563 346.424 374.100 344.367 373.311 C 343.621 373.024 343.290 372.340 343.631 371.788 C 344.013 371.170 344.614 371.305 345.203 372.143 C 345.878 373.103 346.030 372.705 345.724 370.785 C 345.486 369.292 345.788 367.865 346.395 367.614 C 347.003 367.363 347.050 367.136 346.500 367.109 C 345.950 367.083 344.709 367.521 343.742 368.085 M 339.137 410.250 C 339.212 410.938 339.271 412.288 339.267 413.250 C 339.264 414.213 339.652 415.000 340.130 415.000 C 340.609 415.000 341.000 416.125 341.000 417.500 C 341.000 418.928 341.577 420.000 342.346 420.000 C 343.259 420.000 343.623 421.129 343.479 423.508 C 343.362 425.438 342.869 427.013 342.383 427.008 C 341.897 427.004 341.500 427.488 341.500 428.083 C 341.500 428.679 341.194 428.860 340.819 428.486 C 340.444 428.111 340.408 427.100 340.739 426.238 C 341.168 425.121 340.961 424.906 340.015 425.490 C 339.128 426.039 338.930 425.923 339.415 425.138 C 339.813 424.494 340.670 424.286 341.319 424.676 C 341.992 425.079 341.909 424.656 341.128 423.692 C 340.373 422.761 339.135 422.000 338.378 422.000 C 337.620 422.000 337.000 421.550 337.000 421.000 C 337.000 420.450 337.405 420.113 337.900 420.250 C 338.395 420.388 338.733 420.059 338.650 419.519 C 338.568 418.980 338.050 418.486 337.500 418.421 C 334.444 418.064 335.072 417.405 338.750 417.110 C 340.071 417.004 340.180 416.767 339.197 416.143 C 338.481 415.689 337.971 414.908 338.066 414.408 C 338.511 412.044 337.888 411.106 336.283 411.722 C 334.754 412.308 334.727 412.199 336.033 410.728 C 337.802 408.736 338.952 408.559 339.137 410.250 "/></g>
<g fill="#00B2C4FF" stroke="#00B2C4FF">
<path d="M 345.500 380.459 C 344.950 381.900 344.838 382.762 345.250 382.373 C 345.663 381.985 346.000 385.315 346.000 389.774 C 346.000 397.411 345.440 399.106 342.750 399.610 C 342.338 399.687 342.338 399.813 342.750 399.890 C 343.163 399.967 342.840 400.448 342.034 400.958 C 341.104 401.546 340.097 401.496 339.284 400.820 C 338.533 400.198 338.000 400.155 338.000 400.717 C 338.000 401.246 339.125 402.192 340.500 402.818 C 341.875 403.445 343.000 404.668 343.000 405.538 C 343.000 406.407 343.399 406.871 343.887 406.570 C 344.374 406.269 345.387 406.778 346.137 407.703 C 346.942 408.696 347.014 409.092 346.311 408.671 C 345.641 408.269 344.673 408.730 344.092 409.729 C 343.525 410.703 342.991 411.163 342.905 410.750 C 342.484 408.717 342.226 408.022 341.977 408.250 C 341.827 408.388 341.658 407.721 341.602 406.769 C 341.546 405.818 341.050 404.992 340.500 404.934 C 339.950 404.877 338.851 404.306 338.058 403.665 C 336.916 402.742 336.787 402.783 337.436 403.862 C 337.932 404.685 337.752 405.535 336.982 406.011 C 336.088 406.564 336.678 407.299 338.969 408.484 C 341.273 409.675 341.918 410.482 341.166 411.234 C 340.415 411.985 340.516 413.097 341.511 415.022 C 342.286 416.520 342.638 418.028 342.293 418.373 C 341.949 418.718 342.192 419.000 342.833 419.000 C 344.258 419.000 344.329 417.483 343.018 415.034 C 342.296 413.685 342.413 413.055 343.460 412.654 C 344.567 412.229 344.834 413.003 344.659 416.129 C 344.536 418.341 344.809 420.382 345.266 420.664 C 345.723 420.947 345.659 421.706 345.124 422.351 C 344.489 423.116 344.543 424.994 345.279 427.752 C 346.290 431.539 346.204 432.130 344.456 433.409 C 343.382 434.194 342.841 435.174 343.254 435.587 C 343.667 436.000 343.256 437.164 342.342 438.175 C 341.427 439.185 340.976 440.310 341.339 440.673 C 341.703 441.036 342.000 440.793 342.000 440.131 C 342.000 439.240 342.516 439.206 344.000 440.000 C 345.296 440.693 346.000 442.094 346.000 443.976 C 346.000 447.661 344.657 448.510 342.387 446.259 C 340.723 444.610 340.653 444.609 341.269 446.235 C 341.703 447.381 341.284 448.313 340.035 448.981 C 337.647 450.259 334.710 449.199 335.431 447.319 C 335.734 446.531 335.536 446.169 334.989 446.507 C 333.573 447.382 333.765 448.622 335.597 450.454 C 336.476 451.333 336.940 452.715 336.629 453.526 C 336.317 454.337 336.446 455.000 336.915 455.000 C 337.383 455.000 338.044 453.988 338.383 452.750 C 338.856 451.025 339.204 450.817 339.875 451.857 C 340.485 452.803 340.957 452.879 341.434 452.107 C 341.810 451.498 341.615 451.000 341.000 451.000 C 340.385 451.000 340.148 450.570 340.473 450.044 C 341.361 448.606 344.195 450.048 343.589 451.629 C 343.300 452.383 343.467 453.000 343.962 453.000 C 344.456 453.000 345.056 451.988 345.294 450.750 C 345.540 449.473 345.780 450.231 345.849 452.500 C 345.938 455.451 345.710 456.107 344.982 455.000 C 344.202 453.816 344.061 453.977 344.312 455.769 C 344.486 457.017 344.937 457.729 345.314 457.352 C 345.691 456.975 346.000 457.642 346.000 458.833 C 346.000 460.025 345.523 461.000 344.941 461.000 C 344.359 461.000 344.195 460.493 344.578 459.874 C 345.076 459.069 344.770 459.029 343.509 459.735 C 342.320 460.401 342.112 460.951 342.872 461.421 C 343.492 461.804 344.045 463.104 344.100 464.309 C 344.192 466.349 344.255 466.327 345.000 464.000 C 345.776 461.576 345.804 461.594 345.900 464.583 C 346.039 468.884 345.083 469.376 342.636 466.264 C 341.481 464.796 341.091 463.938 341.768 464.357 C 342.539 464.833 343.000 464.546 343.000 463.590 C 343.000 462.643 342.430 462.282 341.500 462.638 C 340.675 462.955 340.000 463.793 340.000 464.500 C 340.000 465.207 339.274 466.064 338.387 466.405 C 337.119 466.892 337.026 467.326 337.952 468.442 C 338.893 469.577 338.666 470.109 336.815 471.099 C 335.542 471.781 334.388 472.262 334.250 472.169 C 334.113 472.076 334.225 472.056 334.500 472.125 C 334.775 472.194 335.563 472.306 336.250 472.375 C 336.938 472.444 337.500 473.535 337.500 474.800 C 337.500 476.640 337.750 476.850 338.750 475.850 C 339.694 474.906 340.000 474.893 340.000 475.800 C 340.000 477.695 342.824 477.197 343.944 475.105 C 344.702 473.689 344.572 472.889 343.430 471.942 C 342.111 470.848 341.968 471.039 342.385 473.337 C 342.945 476.425 341.983 476.744 339.706 474.227 C 338.738 473.158 338.423 471.934 338.912 471.143 C 339.536 470.133 339.881 470.254 340.412 471.665 C 340.908 472.987 340.968 472.874 340.627 471.262 C 340.032 468.450 341.555 467.412 343.468 469.325 C 345.108 470.965 346.302 476.000 345.050 476.000 C 344.601 476.000 343.955 476.788 343.616 477.750 C 343.276 478.713 342.749 480.026 342.443 480.670 C 342.110 481.370 342.598 481.735 343.658 481.580 C 345.785 481.267 346.439 483.894 344.426 484.667 C 343.648 484.965 343.260 485.612 343.565 486.105 C 343.869 486.597 343.656 487.000 343.090 487.000 C 342.525 487.000 342.321 487.672 342.636 488.494 C 342.952 489.316 343.581 489.759 344.036 489.478 C 344.490 489.197 345.130 489.401 345.458 489.931 C 346.069 490.921 343.854 490.708 340.750 489.479 C 339.390 488.940 338.986 489.311 338.937 491.143 L 338.873 493.500 337.803 491.000 L 336.732 488.500 336.519 491.286 C 336.396 492.889 336.931 494.422 337.781 494.897 C 338.810 495.473 338.915 495.934 338.128 496.421 C 337.508 496.804 337.000 496.551 337.000 495.859 C 337.000 494.952 336.696 494.904 335.913 495.687 C 335.130 496.470 335.130 496.962 335.913 497.446 C 337.602 498.490 337.193 501.000 335.333 501.000 C 333.682 501.000 334.321 502.385 336.083 502.625 C 336.588 502.694 336.663 502.838 336.250 502.945 C 335.838 503.053 336.400 503.527 337.500 504.000 C 339.130 504.701 339.188 504.872 337.809 504.930 C 336.879 504.968 335.839 504.549 335.498 503.997 C 335.090 503.336 334.253 503.329 333.044 503.976 C 331.699 504.696 330.869 504.547 329.930 503.416 C 328.814 502.071 329.025 501.949 331.575 502.460 C 334.142 502.974 334.225 502.925 332.250 502.055 C 331.013 501.510 330.000 500.510 330.000 499.832 C 330.000 498.874 330.267 498.867 331.200 499.800 C 333.063 501.663 334.185 501.214 333.035 499.066 C 331.707 496.584 331.716 495.000 333.059 495.000 C 333.641 495.000 333.842 495.446 333.505 495.992 C 333.168 496.538 333.342 497.775 333.892 498.742 C 334.718 500.195 334.843 500.019 334.609 497.733 C 334.454 496.211 334.548 495.086 334.818 495.233 C 335.088 495.380 335.425 494.713 335.566 493.750 C 335.831 491.946 334.427 491.278 333.833 492.925 C 333.309 494.381 330.610 494.638 330.420 493.250 C 330.086 490.795 329.842 490.525 329.513 492.246 C 329.329 493.206 329.588 494.245 330.089 494.555 C 331.258 495.277 331.279 498.000 330.117 498.000 C 329.631 498.000 328.987 497.060 328.687 495.911 C 328.229 494.158 327.848 494.009 326.320 494.986 C 324.895 495.898 324.859 496.041 326.151 495.645 C 327.249 495.308 327.999 495.870 328.388 497.319 C 329.220 500.423 329.153 500.783 327.750 500.731 C 327.063 500.706 326.838 500.756 327.250 500.842 C 329.037 501.218 327.779 502.513 325.499 502.644 C 322.962 502.791 322.165 501.634 324.016 500.490 C 325.646 499.483 324.252 498.250 321.775 498.508 C 320.524 498.638 319.988 498.802 320.583 498.872 C 321.179 498.943 321.742 499.675 321.833 500.500 C 321.925 501.325 322.075 502.675 322.167 503.500 C 322.357 505.214 323.587 505.478 324.500 504.000 C 325.218 502.838 327.056 502.645 326.882 503.750 C 326.816 504.163 326.816 504.414 326.882 504.309 C 326.947 504.204 328.159 504.720 329.574 505.454 C 331.097 506.244 331.710 507.061 331.074 507.454 C 330.484 507.819 329.966 507.754 329.923 507.309 C 329.881 506.864 329.701 507.253 329.523 508.173 C 329.295 509.354 329.759 509.739 331.100 509.481 C 332.450 509.221 333.000 509.688 333.000 511.093 C 333.000 512.832 332.729 512.926 330.750 511.871 C 328.667 510.761 328.608 510.803 329.956 512.437 C 331.906 514.800 332.141 517.000 330.443 517.000 C 329.563 517.000 329.296 516.393 329.705 515.326 C 330.192 514.058 329.942 513.808 328.674 514.295 C 327.753 514.648 326.944 514.501 326.875 513.969 C 326.806 513.436 326.687 512.213 326.610 511.250 C 326.395 508.571 324.995 506.883 323.681 507.718 C 322.842 508.252 322.920 508.474 323.949 508.485 C 325.815 508.504 326.162 513.724 324.343 514.422 C 323.604 514.705 323.000 514.501 323.000 513.969 C 323.000 513.436 322.325 513.000 321.500 513.000 C 320.675 513.000 320.000 513.477 320.000 514.059 C 320.000 514.641 320.450 514.840 321.000 514.500 C 321.550 514.160 322.000 514.359 322.000 514.941 C 322.000 515.523 321.550 516.000 321.000 516.000 C 320.450 516.000 320.000 516.450 320.000 517.000 C 320.000 517.617 325.163 518.000 333.490 518.000 L 346.980 518.000 347.240 471.750 L 347.500 425.500 361.161 425.222 L 374.823 424.945 374.928 413.472 L 375.032 402.000 362.266 401.985 C 355.245 401.976 348.953 401.622 348.285 401.197 C 347.478 400.685 346.974 396.626 346.785 389.131 C 346.562 380.300 346.282 378.409 345.500 380.459 M 336.238 506.965 C 337.164 508.046 337.517 509.181 337.022 509.486 C 336.088 510.064 336.284 512.124 337.588 515.424 C 338.203 516.983 338.015 517.220 336.592 516.674 C 335.626 516.303 334.423 516.000 333.918 516.000 C 332.541 516.000 332.812 514.331 334.456 512.687 C 335.731 511.412 335.669 511.010 333.956 509.460 C 332.880 508.487 332.000 507.985 332.000 508.345 C 332.000 508.705 332.000 508.663 332.000 508.250 C 332.000 507.838 332.450 507.444 333.000 507.375 C 334.510 507.186 335.117 506.766 334.083 506.625 C 332.458 506.403 331.618 505.000 333.111 505.000 C 333.906 505.000 335.313 505.884 336.238 506.965 "/></g>
<g fill="#00A7F6FF" stroke="#00A7F6FF">
<path d="M 240.000 366.474 L 240.000 380.000 255.000 380.000 L 270.000 380.000 270.060 374.250 C 270.093 371.088 270.205 365.125 270.310 361.000 L 270.500 353.500 255.250 353.224 L 240.000 352.948 240.000 366.474 "/></g>
<g fill="#00A7F6FF" stroke="#00A7F6FF">
<path d="M 320.193 501.750 C 320.286 503.263 320.753 505.022 321.230 505.661 C 321.739 506.343 321.665 507.089 321.049 507.470 C 319.404 508.487 319.772 513.000 321.500 513.000 C 322.325 513.000 323.000 513.436 323.000 513.969 C 323.000 514.501 323.604 514.705 324.343 514.422 C 326.162 513.724 325.815 508.504 323.949 508.485 C 322.920 508.474 322.842 508.252 323.681 507.718 C 324.995 506.883 326.395 508.571 326.610 511.250 C 326.687 512.213 326.806 513.436 326.875 513.969 C 326.944 514.501 327.753 514.648 328.674 514.295 C 329.942 513.808 330.192 514.058 329.705 515.326 C 329.296 516.393 329.563 517.000 330.443 517.000 C 332.141 517.000 331.906 514.800 329.956 512.437 C 328.608 510.803 328.667 510.761 330.750 511.871 C 332.729 512.926 333.000 512.832 333.000 511.093 C 333.000 509.688 332.450 509.221 331.100 509.481 C 329.780 509.735 329.275 509.335 329.445 508.173 C 329.580 507.253 329.985 506.613 330.345 506.750 C 330.705 506.888 331.113 506.966 331.250 506.923 C 331.388 506.881 332.313 506.693 333.306 506.504 C 334.679 506.243 334.856 506.469 334.043 507.448 C 333.267 508.383 333.381 509.071 334.460 509.967 C 335.767 511.051 335.768 511.375 334.472 512.671 C 332.814 514.329 332.536 516.000 333.918 516.000 C 334.423 516.000 335.626 516.303 336.592 516.674 C 338.015 517.220 338.203 516.983 337.588 515.424 C 336.274 512.097 336.091 510.062 337.051 509.468 C 337.562 509.153 337.142 507.995 336.118 506.896 C 334.784 505.464 333.542 505.077 331.737 505.530 C 330.194 505.917 328.922 505.684 328.455 504.927 C 327.931 504.080 328.103 503.946 329.000 504.500 C 329.885 505.047 330.068 504.919 329.565 504.106 C 328.992 503.179 328.455 503.201 327.219 504.201 C 326.017 505.175 325.804 505.187 326.367 504.250 C 326.780 503.563 326.668 503.000 326.118 503.000 C 325.568 503.000 324.840 503.450 324.500 504.000 C 323.587 505.478 322.357 505.214 322.167 503.500 C 322.075 502.675 321.925 501.325 321.833 500.500 C 321.532 497.785 320.019 498.937 320.193 501.750 "/></g>
<g fill="#00B2C4FF" stroke="#00B2C4FF">
<path d="M 336.033 410.728 C 334.727 412.199 334.754 412.308 336.283 411.722 C 337.888 411.106 338.511 412.044 338.066 414.408 C 337.971 414.908 338.481 415.689 339.197 416.143 C 340.180 416.767 340.071 417.004 338.750 417.110 C 335.072 417.405 334.444 418.064 337.500 418.421 C 338.050 418.486 338.568 418.980 338.650 419.519 C 338.733 420.059 338.395 420.388 337.900 420.250 C 337.405 420.113 337.000 420.450 337.000 421.000 C 337.000 421.550 337.620 422.000 338.378 422.000 C 339.135 422.000 340.373 422.761 341.128 423.692 C 341.909 424.656 341.992 425.079 341.319 424.676 C 340.670 424.286 339.813 424.494 339.415 425.138 C 338.930 425.923 339.128 426.039 340.015 425.490 C 340.961 424.906 341.168 425.121 340.739 426.238 C 340.408 427.100 340.444 428.111 340.819 428.486 C 341.194 428.860 341.500 428.679 341.500 428.083 C 341.500 427.488 341.897 427.004 342.383 427.008 C 342.869 427.013 343.362 425.438 343.479 423.508 C 343.623 421.129 343.259 420.000 342.346 420.000 C 341.577 420.000 341.000 418.928 341.000 417.500 C 341.000 416.125 340.609 415.000 340.130 415.000 C 339.652 415.000 339.264 414.213 339.267 413.250 C 339.286 408.514 338.526 407.921 336.033 410.728 "/></g>
<g fill="#00B2C4FF" stroke="#00B2C4FF">
<path d="M 335.344 480.509 C 334.709 481.878 334.577 483.238 335.051 483.531 C 335.525 483.824 335.665 484.837 335.362 485.782 C 334.894 487.241 334.974 487.274 335.890 486.000 C 336.944 484.536 337.118 484.683 337.375 487.249 C 337.551 489.011 341.405 488.812 341.670 487.027 C 341.790 486.217 342.692 484.967 343.675 484.248 C 345.326 483.041 345.291 482.968 343.212 483.285 C 341.974 483.474 341.271 483.937 341.648 484.314 C 342.025 484.691 341.289 485.000 340.012 485.000 C 337.790 485.000 337.764 484.918 339.418 483.091 C 341.068 481.268 341.041 481.143 338.823 480.349 C 336.746 479.605 336.712 479.505 338.500 479.407 C 342.739 479.172 343.357 478.756 340.000 478.395 C 337.060 478.079 336.315 478.417 335.344 480.509 "/></g>
<g fill="#00BE95FF" stroke="#00BE95FF">
<path d="M 482.854 466.897 C 482.648 467.491 477.982 468.001 471.713 468.115 C 465.780 468.223 460.720 468.644 460.468 469.051 C 460.217 469.458 464.892 469.852 470.858 469.926 C 479.565 470.033 481.960 469.753 482.995 468.506 C 483.705 467.651 484.043 466.709 483.747 466.413 C 483.451 466.117 483.049 466.335 482.854 466.897 "/></g>
</svg>
